<svg fill="none" height="38" viewBox="0 0 135 38" width="135" xmlns="http://www.w3.org/2000/svg" xmlns:xlink="http://www.w3.org/1999/xlink"><linearGradient id="a" gradientUnits="userSpaceOnUse" x1="21.7995" x2="5.01711" y1="10.7101" y2="27.4925"><stop offset="0" stop-color="#00a0ff"/><stop offset=".00657" stop-color="#00a1ff"/><stop offset=".2601" stop-color="#00beff"/><stop offset=".5122" stop-color="#00d2ff"/><stop offset=".7604" stop-color="#00dfff"/><stop offset="1" stop-color="#00e3ff"/></linearGradient><linearGradient id="b" gradientUnits="userSpaceOnUse" x1="33.8344" x2="9.63752" y1="20.0017" y2="20.0017"><stop offset="0" stop-color="#ffe000"/><stop offset=".4087" stop-color="#ffbd00"/><stop offset=".7754" stop-color="#ffa500"/><stop offset="1" stop-color="#ff9c00"/></linearGradient><linearGradient id="c" gradientUnits="userSpaceOnUse" x1="24.8271" x2="2.06882" y1="22.2961" y2="45.0544"><stop offset="0" stop-color="#ff3a44"/><stop offset="1" stop-color="#c31162"/></linearGradient><linearGradient id="d" gradientUnits="userSpaceOnUse" x1="7.29748" x2="17.46" y1=".175749" y2="10.3383"><stop offset="0" stop-color="#32a071"/><stop offset=".0685" stop-color="#2da771"/><stop offset=".4762" stop-color="#15cf74"/><stop offset=".8009" stop-color="#06e775"/><stop offset="1" stop-color="#00f076"/></linearGradient><rect fill="#000" height="38" rx="6" width="135"/><path d="m68.1354 21.7519c-.8405.0032-1.6613.2554-2.3586.7247-.6973.4692-1.2399 1.1346-1.5593 1.9121-.3195.7774-.4014 1.6321-.2355 2.4561.166.8239.5723 1.5803 1.1678 2.1735.5954.5932 1.3533.9966 2.1779 1.1594s1.6789.0777 2.4552-.2447c.7762-.3224 1.4395-.8676 1.9061-1.5667.4667-.6991.7157-1.5207.7157-2.3612.0082-.5622-.0967-1.1203-.3085-1.6411s-.5263-.9937-.9246-1.3905-.8724-.7095-1.394-.9193c-.5216-.2099-1.0801-.3126-1.6422-.3023zm0 6.8309c-.5176.0369-1.0344-.0829-1.483-.3438s-.8082-.6508-1.0321-1.119c-.2239-.4681-.3017-.9928-.2232-1.5058s.3097-.9904.6633-1.3702c.3537-.3798.8135-.6443 1.3195-.7591.5061-.1148 1.035-.0745 1.5179.1155s.8974.521 1.1896.9499c.2921.4289.4484.9358.4484 1.4548.0157.3278-.0343.6555-.1472.9637-.1128.3082-.2862.5907-.5099.8309-.2236.2402-.4931.4332-.7925.5677s-.6227.2077-.9508.2154zm-9.3134-6.8309c-.8405.0032-1.6613.2554-2.3586.7246-.6973.4693-1.24 1.1347-1.5594 1.9121-.3195.7774-.4014 1.6321-.2355 2.4561s.5723 1.5803 1.1677 2.1735c.5955.5932 1.3534.9967 2.178 1.1595s1.6789.0777 2.4552-.2447c.7762-.3224 1.4395-.8676 1.9061-1.5667.4667-.6991.7157-1.5207.7157-2.3612.0082-.5622-.0967-1.1203-.3085-1.6411s-.5262-.9937-.9245-1.3905c-.3984-.3968-.8724-.7094-1.394-.9193-.5216-.2098-1.0801-.3126-1.6422-.3023zm0 6.8309c-.5176.0369-1.0344-.0829-1.483-.3438s-.8082-.6508-1.0321-1.119c-.2239-.4681-.3017-.9928-.2232-1.5058s.3097-.9904.6633-1.3702c.3537-.3798.8135-.6443 1.3195-.7591.5061-.1148 1.035-.0745 1.5179.1155s.8974.521 1.1896.9499c.2921.4289.4484.9358.4484 1.4548.0157.3278-.0343.6555-.1472.9637-.1128.3082-.2862.5907-.5098.8309-.2237.2402-.4932.4332-.7926.5677s-.6227.2077-.9508.2154zm-11.0788-5.5259v1.8043h4.3177c-.0623.8464-.4086 1.6468-.9828 2.2717-.4327.441-.953.7864-1.5274 1.0139-.5745.2276-1.1902.3322-1.8075.307-1.262-.017-2.4666-.5304-3.353-1.4288-.8864-.8985-1.3834-2.1099-1.3834-3.372 0-1.2622.497-2.4736 1.3834-3.3721.8864-.8984 2.091-1.4118 3.353-1.4288 1.2122-.0159 2.3817.4473 3.2544 1.2888l1.2727-1.2727c-.5955-.5895-1.3026-1.0542-2.08-1.3668s-1.6093-.4669-2.4471-.4538c-.8755-.0127-1.7448.1487-2.5574.475-.8126.3262-1.5522.8107-2.1758 1.4253s-1.1189 1.3471-1.4569 2.1548c-.338.8078-.5121 1.6746-.5121 2.5503 0 .8756.1741 1.7424.5121 2.5502.338.8077.8333 1.5402 1.4569 2.1548s1.3632 1.0991 2.1758 1.4253c.8126.3263 1.6819.4877 2.5574.4749.8554.0355 1.7087-.1113 2.503-.4307.7944-.3195 1.5118-.8041 2.1046-1.4219 1.0524-1.1488 1.6133-2.6638 1.5628-4.2209.0041-.3782-.0283-.7558-.0968-1.1278zm45.3083 1.4016c-.2556-.7704-.7422-1.4434-1.3936-1.9276-.6514-.4843-1.4361-.7562-2.2474-.779-.5465.0034-1.0866.1176-1.5877.3356-.5011.2181-.9527.5355-1.3277.933-.375.3976-.6654.867-.8538 1.38s-.2708 1.0588-.2422 1.6046c-.0123.5591.0882 1.1151.2955 1.6345.2074.5195.5173.9918.9113 1.3888s.8639.7105 1.3818.9218 1.073.3161 1.6323.308c.7006.0039 1.3913-.1663 2.0099-.4953s1.1458-.8064 1.5343-1.3895l-1.4499-.9667c-.2172.3608-.5245.6589-.8916.865-.3672.2062-.7816.3134-1.2027.3111-.4333.0165-.8616-.0975-1.2293-.3273s-.6579-.5648-.8329-.9616l5.6871-2.352zm-5.7997 1.4177c-.0201-.3095.0219-.62.1233-.9131.1014-.2932.2602-.5632.4672-.7942s.458-.4184.7384-.5513c.2803-.1328.5843-.2084.8942-.2223.3227-.0213.6445.053.9252.2134.2808.1604.5081.4.6537.6887zm-4.6238 4.1243h1.8688v-12.5017h-1.8688zm-3.061-7.2981h-.0644c-.2841-.3086-.6309-.5531-1.0171-.717s-.8029-.2435-1.2223-.2335c-1.0967.0467-2.133.5152-2.8925 1.3077s-1.1835 1.8478-1.1835 2.9455.424 2.1529 1.1835 2.9455c.7595.7925 1.7958 1.261 2.8925 1.3076.4211.0113.8395-.0694 1.2263-.2363.3867-.167.7324-.4162 1.0131-.7302h.0644v.6122c0 1.6272-.8699 2.497-2.2716 2.497-.4672-.0111-.9204-.1611-1.302-.4308-.3815-.2697-.6742-.6469-.8406-1.0836l-1.6272.6767c.3067.7467.8293 1.3848 1.5009 1.8326.6717.4477 1.4617.6847 2.2689.6806 2.1911 0 4.0438-1.2888 4.0438-4.4304v-7.6364h-1.7722zm-2.1426 5.8804c-.646-.0548-1.2478-.3501-1.6864-.8275-.4386-.4773-.682-1.1019-.682-1.7502s.2434-1.2729.682-1.7502c.4386-.4774 1.0404-.7727 1.6864-.8274.3213.0156.6362.0959.9259.2359s.5483.3368.7602.5789c.212.242.3731.5243.4736.8299.1006.3056.1386.6283.1118.949.0251.3186-.0143.639-.1159.9421-.1015.303-.2632.5825-.4752.8216-.2121.2392-.4702.4331-.7589.5702-.2888.137-.6022.2145-.9215.2277zm24.3806-11.0837h-4.4708v12.5014h1.8657v-4.7365h2.6051c.528.029 1.056-.05 1.552-.232.497-.1821.951-.4634 1.334-.8267.384-.3634.69-.8012.899-1.2867s.317-1.0085.317-1.5371c0-.5285-.108-1.0515-.317-1.537s-.515-.9233-.899-1.2867c-.383-.3633-.837-.6446-1.334-.8267-.496-.182-1.024-.261-1.552-.232zm.049 6.0252h-2.6541v-4.2853h2.6541c.285-.006.568.0451.833.1501s.507.2619.711.4615c.203.1995.365.4377.476.7006.11.2629.167.5452.167.8304s-.057.5675-.167.8304c-.111.2629-.273.5011-.476.7006-.204.1996-.446.3565-.711.4615s-.548.1561-.833.1502zm11.531-1.7953c-.681-.0398-1.359.1201-1.95.4601s-1.071.8452-1.379 1.4537l1.657.6916c.164-.302.413-.5496.715-.7124.303-.1628.647-.2338.989-.2043.474-.0463.946.0971 1.314.3986.368.3014.601.7365.649 1.2096v.1287c-.6-.3183-1.268-.484-1.947-.4825-1.785 0-3.602.9811-3.602 2.8146.017.3865.112.7654.279 1.1145.166.3491.401.6611.691.9177.289.2565.627.4522.994.5756.367.1233.754.1718 1.14.1424.47.0277.938-.0711 1.357-.2861.419-.2149.772-.5382 1.023-.9361h.065v.965h1.801v-4.7929c0-2.2195-1.657-3.4578-3.796-3.4578zm-.225 6.8513c-.611 0-1.464-.3055-1.464-1.0614 0-.9649 1.062-1.3349 1.979-1.3349.595-.0159 1.184.1285 1.705.4181-.069.5423-.331 1.0414-.74 1.405-.408.3637-.933.5673-1.48.5732zm10.583-6.578-2.139 5.42h-.065l-2.219-5.42h-2.01l3.329 7.5752-1.898 4.2138h1.946l5.131-11.789zm-16.807 7.9982h1.865v-12.5014h-1.865z" fill="#fff"/><path d="m10.4352 9.53842c-.3279.39207-.4935.89468-.46282 1.40488v22.1161c-.03077.5102.13482 1.0129.46282 1.4049l.074.0721 12.389-12.3889v-.2923l-12.389-12.38938z" fill="url(#a)"/><path d="m27.0278 24.2787-4.1294-4.1314v-.2923l4.1304-4.1304.0931.0531 4.8928 2.7801c1.3976.794 1.3976 2.0932 0 2.8877l-4.8928 2.7801z" fill="url(#b)"/><path d="m27.122 24.2249-4.2235-4.2239-12.463 12.4629c.2848.2511.6485.3948 1.028.406s.751-.1107 1.0501-.3446z" fill="url(#c)"/><path d="m27.122 15.7766-14.6084-8.30043c-.2991-.23391-.6706-.35581-1.0501-.3446s-.7432.15484-1.028.406l12.463 12.46303z" fill="url(#d)"/><g fill="#000"><path d="m27.0289 24.1318-14.5153 8.2473c-.2875.219-.6385.3384-1 .3403-.3614.002-.7136-.1137-1.0036-.3296l-.0745.0745.074.0721.0005-.0005c.2899.216.6422.3318 1.0036.3298.3615-.0019.7125-.1214 1-.3405l14.6084-8.3004z" opacity=".2"/><path d="m10.4352 34.318c-.3279-.3921-.49349-.8947-.46284-1.4049v.1461c-.03067.5102.13494 1.0128.46284 1.4049l.0745-.0745z" opacity=".12"/><path d="m32.0152 21.2993-4.9859 2.8332.0931.093 4.8928-2.7801c.2878-.125.5369-.3247.7212-.5786.1844-.2539.2974-.5525.3271-.8648-.0619.2828-.1888.5473-.3708.7725s-.4139.4049-.6775.5248z" opacity=".12"/></g><path d="m12.5136 7.62334 19.5012 11.07996c.2636.1199.4957.2996.6777.5249.1819.2253.3088.49.3706.7729-.0296-.3124-.1424-.6112-.3268-.8652s-.4336-.4538-.7215-.5787l-19.5012-11.07996c-1.3976-.7941-2.54094-.1345-2.54094 1.4663v.1461c0-1.6007 1.14334-2.2603 2.54094-1.4663z" fill="#fff" opacity=".25"/><path d="m47.5455 8.53c0 .48667-.1534.87333-.46 1.16-.3067.28-.7167.46-1.23.54v.04c.6.08 1.0566.2667 1.37.56.3133.2933.47.6767.47 1.15 0 .6267-.24 1.1367-.72 1.53s-1.2.59-2.16.59c-.3867 0-.7567-.03-1.11-.09-.3467-.0533-.67-.1533-.97-.3v-.82c.3133.1467.6533.2633 1.02.35.3733.08.7233.12 1.05.12.64 0 1.1233-.12 1.45-.36.3333-.24.5-.58.5-1.02 0-.4533-.1934-.7833-.58-.99-.3867-.2067-.9267-.31-1.62-.31h-1.02v-.75h.97c.7066 0 1.2333-.11667 1.58-.35.3533-.24.53-.56.53-.96 0-.36-.1334-.63667-.4-.83-.2667-.19333-.6134-.29-1.04-.29-.4467 0-.82.05667-1.12.17-.2934.11333-.58.26-.86.44l-.43-.61c.28-.20667.6233-.38 1.03-.52.4133-.14667.8766-.22 1.39-.22.7733 0 1.36.16667 1.76.5s.6.75667.6 1.27zm3.5689.02c.6533 0 1.1366.14333 1.45.43.3133.28667.47.74333.47 1.37v3.65h-.64l-.17-.76h-.04c-.2334.2933-.48.51-.74.65-.2534.14-.6067.21-1.06.21-.4867 0-.89-.1267-1.21-.38-.32-.26-.48-.6633-.48-1.21 0-.5333.21-.9433.63-1.23.42-.2933 1.0666-.4533 1.94-.48l.91-.03v-.32c0-.4467-.0967-.75667-.29-.93-.1934-.17333-.4667-.26-.82-.26-.28 0-.5467.04333-.8.13-.2534.08-.49.17333-.71.28l-.27-.66c.2333-.12667.51-.23333.83-.32.32-.09333.6533-.14 1-.14zm.26 2.86c-.6667.0267-1.13.1333-1.39.32-.2534.1867-.38.45-.38.79 0 .3.09.52.27.66.1866.14.4233.21.71.21.4533 0 .83-.1233 1.13-.37.3-.2533.45-.64.45-1.16v-.48zm6.5854-2.77v.74h-2.39v4.62h-.88v-5.36zm3.6062-.1c.66 0 1.19.23 1.59.69.4067.46.61 1.1533.61 2.08 0 .9133-.2033 1.6067-.61 2.08-.4.4733-.9333.71-1.6.71-.4133 0-.7567-.0767-1.03-.23-.2667-.16-.4767-.3433-.63-.55h-.06c.0133.1133.0267.2567.04.43s.02.3233.02.45v2.2h-.88v-7.76h.72l.12.73h.04c.16-.23333.37-.43.63-.59s.6067-.24 1.04-.24zm-.16.74c-.5467 0-.9333.15333-1.16.46-.22.3067-.3367.7733-.35 1.4v.17c0 .66.1067 1.17.32 1.53.22.3533.6233.53 1.21.53.3267 0 .5933-.09.8-.27.2133-.18.37-.4233.47-.73.1067-.3133.16-.67.16-1.07 0-.6133-.12-1.1033-.36-1.47-.2333-.36667-.5967-.55-1.09-.55zm2.8247-.64h.94l1.16 3.05c.1.2667.19.5233.27.77.08.24.14.47.18.69h.04c.04-.1667.1033-.3833.19-.65.0867-.2733.1767-.5467.27-.82l1.09-3.04h.95l-2.31 6.1c-.1867.5067-.43.91-.73 1.21-.2933.3-.7.45-1.22.45-.16 0-.3-.01-.42-.03-.12-.0133-.2233-.03-.31-.05v-.7c.0733.0133.16.0267.26.04.1067.0133.2167.02.33.02.3067 0 .5533-.0867.74-.26.1933-.1733.3433-.4033.45-.69l.28-.71zm7.3477-.1c.6133 0 1.1.12333 1.46.37.3666.24.55.58667.55 1.04 0 .3267-.09.5867-.27.78-.18.1867-.4267.3233-.74.41v.04c.2133.06.41.1433.59.25s.3233.2467.43.42c.1133.1733.17.3967.17.67 0 .4467-.1867.8233-.56 1.13-.3667.3-.9434.45-1.73.45-.3867 0-.7367-.0333-1.05-.1-.3134-.06-.5734-.1433-.78-.25v-.79c.2266.1067.4933.2033.8.29.3133.0867.6533.13 1.02.13.4 0 .7366-.0667 1.01-.2.28-.14.42-.3767.42-.71 0-.6-.51-.9-1.53-.9h-.72v-.72h.58c.46 0 .8266-.06 1.1-.18.28-.1267.42-.34.42-.64 0-.25333-.1067-.44333-.32-.57-.2067-.12667-.5067-.19-.9-.19-.2934 0-.5534.03-.78.09-.22.05333-.4634.13667-.73.25l-.31-.7c.56-.24667 1.1833-.37 1.87-.37zm4.3223 3.37c0 .08-.0033.2-.01.36s-.0167.32-.03.48c-.0067.16-.0133.2867-.02.38l2.87-4.49h1.08v5.36h-.82v-3.16c0-.1067 0-.2467 0-.42.0067-.1733.0133-.3433.02-.51.0067-.17333.0133-.30333.02-.39l-2.85 4.48h-1.09v-5.36h.83zm9.2958-2.53h-1.75v4.62h-.87v-4.62h-1.73v-.74h4.35zm3.0282-.84c.46 0 .8533.1 1.18.3.3333.2.5867.48333.76.85.18.36.27.7833.27 1.27v.53h-3.67c.0133.6067.1667 1.07.46 1.39.3.3133.7167.47 1.25.47.34 0 .64-.03.9-.09.2667-.0667.54-.16.82-.28v.77c-.2733.12-.5433.2067-.81.26-.2667.06-.5833.09-.95.09-.5067 0-.9567-.1033-1.35-.31-.3867-.2067-.69-.5133-.91-.92-.2133-.4133-.32-.9167-.32-1.51 0-.5867.0967-1.09.29-1.51.2-.42.4767-.74333.83-.97.36-.22667.7767-.34 1.25-.34zm-.01.72c-.42 0-.7533.13667-1 .41-.24.26667-.3833.64-.43 1.12h2.73c-.0067-.4533-.1133-.82-.32-1.1-.2067-.28667-.5333-.43-.98-.43zm9.8281.73c0 .3333-.1.5933-.3.78s-.4567.3133-.77.38v.04c.3333.0467.6233.1667.87.36.2467.1867.37.48.37.88 0 .4533-.17.83-.51 1.13-.3333.2933-.8867.44-1.66.44h-2.31v-5.36h2.3c.38 0 .72.04333 1.02.13.3067.08.5467.22.72.42.18.19333.27.46.27.8zm-.89.11c0-.25333-.0933-.43667-.28-.55-.18-.12-.4767-.18-.89-.18h-1.37v1.47h1.21c.8867 0 1.33-.2467 1.33-.74zm.15 2.33c0-.3067-.1167-.5267-.35-.66s-.5767-.2-1.03-.2h-1.31v1.72h1.33c.44 0 .7767-.0633 1.01-.19.2333-.1333.35-.3567.35-.67z" fill="#fff"/></svg>