<svg width="124" height="75" viewBox="0 0 124 75" fill="none" xmlns="http://www.w3.org/2000/svg">
<path d="M51.587 5.939L53.009 5.118L61.859 0L70.709 5.118L79.559 10.242V20.268L73.736 16.887V13.609L67.797 10.175L61.859 6.733L55.92 10.175L51.587 12.679V5.939Z" fill="#DC0000"/>
<path d="M63.461 33.297L67.788 30.792L73.726 27.358V23.625L79.549 27.005V30.724L70.699 35.849L69.284 36.67L63.461 33.297Z" fill="#DC0000"/>
<path d="M61.854 40.968L53.004 35.85L44.154 30.725V20.483V10.241L49.977 6.867V13.607V20.483V23.286V27.359L55.915 30.793L55.976 30.827L61.854 34.234L67.677 37.601L61.854 40.968Z" fill="black"/>
<path d="M57.41 7.75H51.587V26.246H57.41V7.75Z" fill="#DC0000"/>
<path d="M72.205 31.611L69.294 36.668L51.587 26.249L54.498 21.199L72.205 31.611Z" fill="#DC0000"/>
<path d="M79.554 29.811L62.613 19.969V13.229L79.554 23.071V29.811Z" fill="#DC0000"/>
<path d="M14.767 75H0V57.73H3.93701V71.053H14.76L14.767 75Z" fill="black"/>
<path d="M34.197 74.996H24.109L22.386 71.049H28.04L24.968 64.099L20.16 74.996H15.745V71.049H17.494L23.374 57.726H26.575L34.197 74.996Z" fill="black"/>
<path d="M51.171 74.996H47.234L39.115 65.199V74.996H35.178V57.726H39.121L47.234 67.509V57.726H51.171V74.996Z" fill="black"/>
<path d="M69.367 74.994H60.758C58.376 74.994 56.35 74.153 54.665 72.464C52.981 70.782 52.142 68.744 52.142 66.356C52.142 63.975 52.981 61.937 54.665 60.248C56.343 58.566 58.376 57.718 60.758 57.718H69.367V61.665H60.758C59.46 61.665 58.357 62.125 57.447 63.037C56.537 63.949 56.078 65.056 56.078 66.356C56.078 67.657 56.537 68.763 57.447 69.676C58.357 70.588 59.46 71.047 60.758 71.047H65.43V68.336H62.971L61.248 64.389H69.367V74.994Z" fill="#DC0000"/>
<path d="M88.819 74.996H78.731L77.008 71.049H82.662L79.59 64.099L74.781 74.996H70.367V71.049H72.116L77.995 57.726H81.197L88.819 74.996Z" fill="#DC0000"/>
<path d="M108.253 74.996H104.316V67.173L100.257 74.989H97.798L93.738 67.173V74.989H89.801V57.726H93.745L99.031 68.331L104.316 57.726H108.26V74.996H108.253Z" fill="#DC0000"/>
<path d="M124 74.996H109.24V57.726H124V61.673H113.18V64.384H121.54V68.331H113.18V71.042H124V74.996Z" fill="#DC0000"/>
</svg>
