<svg width="36" height="41" fill="none"
    xmlns="http://www.w3.org/2000/svg">
    <path d="m7.587 5.939 1.422-.821L17.859 0l8.85 5.118 8.85 5.124v10.026l-5.823-3.381v-3.278l-5.939-3.434-5.938-3.442-5.939 3.442-4.333 2.504v-6.74ZM19.461 33.297l4.327-2.505 5.938-3.434v-3.733l5.823 3.38v3.719l-8.85 5.125-1.415.821-5.823-3.373Z" fill="#DC0000"/>
    <path d="m17.854 40.968-8.85-5.118-8.85-5.125V10.241l5.823-3.374v20.492l5.938 3.434.061.034 5.878 3.407 5.823 3.367-5.823 3.367Z" fill="#000"/>
    <path d="M13.41 7.75H7.587v18.496h5.823V7.75Z" fill="#DC0000"/>
    <path d="m28.205 31.611-2.911 5.057L7.587 26.249l2.911-5.05 17.707 10.412ZM35.554 29.811l-16.941-9.842v-6.74l16.941 9.842v6.74Z" fill="#DC0000"/>
</svg>