<svg width="36" height="41" viewBox="0 0 36 41" fill="none"
    xmlns="http://www.w3.org/2000/svg">
    <path d="M7.58698 5.939L9.00897 5.118L17.859 0L26.709 5.118L35.559 10.242V20.268L29.736 16.887V13.609L23.797 10.175L17.859 6.733L11.92 10.175L7.58698 12.679V5.939Z" fill="#DC0000"/>
    <path d="M19.461 33.297L23.788 30.792L29.726 27.358V23.625L35.549 27.005V30.724L26.699 35.849L25.284 36.67L19.461 33.297Z" fill="#DC0000"/>
    <path d="M17.854 40.968L9.00403 35.85L0.153992 30.725V20.483V10.241L5.97699 6.867V13.607V20.483V23.286V27.359L11.915 30.793L11.976 30.827L17.854 34.234L23.677 37.601L17.854 40.968Z" fill="black"/>
    <path d="M13.41 7.75H7.58698V26.246H13.41V7.75Z" fill="#DC0000"/>
    <path d="M28.205 31.611L25.294 36.668L7.58698 26.249L10.498 21.199L28.205 31.611Z" fill="#DC0000"/>
    <path d="M35.554 29.811L18.613 19.969V13.229L35.554 23.071V29.811Z" fill="#DC0000"/>
</svg>
