<svg width="14" height="19" viewBox="0 0 14 19" fill="none" xmlns="http://www.w3.org/2000/svg">
<g opacity="0.5">
<path d="M3.81702 3.00101C3.81702 2.67401 3.94899 2.38102 4.17999 2.15302C4.41099 1.92402 4.708 1.79401 5.039 1.79401H9.297C9.627 1.79401 9.92403 1.92402 10.155 2.15302C10.386 2.38102 10.518 2.67401 10.518 3.00101V6.00699C10.518 6.50799 10.925 6.914 11.426 6.914C11.927 6.914 12.334 6.50799 12.334 6.00699V3.00101C12.334 2.18501 12.004 1.40201 11.443 0.881012C10.881 0.326012 10.122 0 9.297 0H5.039C4.213 0 3.42101 0.326012 2.89301 0.881012C2.33201 1.43501 2.00201 2.18501 2.00201 3.00101V6.00699C2.00201 6.50799 2.408 6.914 2.909 6.914C3.411 6.914 3.81702 6.50799 3.81702 6.00699V3.00101Z" fill="black"/>
<path d="M13.501 8.50299C13.171 8.18899 12.709 8 12.214 8H1.81598C1.31998 8 0.858015 8.18899 0.528015 8.50299C0.198015 8.81699 0 9.257 0 9.729V12.337C0 14.192 0.791997 15.857 2.047 17.052C3.301 18.246 5.08399 19 6.99799 19C8.94599 19 10.695 18.246 11.95 17.052C13.204 15.857 13.996 14.16 13.996 12.337V9.729C14.029 9.257 13.831 8.81699 13.501 8.50299ZM12.214 12.337C12.214 13.689 11.62 14.946 10.695 15.826C9.73801 16.706 8.45101 17.272 7.03101 17.272C5.61201 17.272 4.291 16.706 3.367 15.826C2.443 14.914 1.849 13.689 1.849 12.337V9.729H12.214V12.337Z" fill="black"/>
<path d="M7 14.002C7.55228 14.002 8 13.5543 8 13.002C8 12.4497 7.55228 12.002 7 12.002C6.44772 12.002 6 12.4497 6 13.002C6 13.5543 6.44772 14.002 7 14.002Z" fill="black"/>
</g>
</svg>
