<svg width="14" height="20" viewBox="0 0 14 20" fill="none"
    xmlns="http://www.w3.org/2000/svg">
    <g opacity="0.5">
        <mask id="mask0_1_78" style="mask-type:luminance" maskUnits="userSpaceOnUse" x="0" y="0" width="14" height="20">
            <path d="M11.375 0H2.625C1.178 0 0 1.121 0 2.5V17.5C0 18.879 1.178 20 2.625 20H11.375C12.822 20 14 18.879 14 17.5V2.5C14 1.121 12.822 0 11.375 0ZM12.25 18.212H1.75V2.5C1.75 2.04 2.143 1.66699 2.625 1.66699H11.375C11.857 1.66699 12.25 2.04 12.25 2.5V18.212Z" fill="white"/>
        </mask>
        <g mask="url(#mask0_1_78)">
            <path d="M12.25 18.212V20.212H14.25V18.212H12.25ZM1.75 18.212H-0.25V20.212H1.75V18.212ZM11.375 -2H2.625V2H11.375V-2ZM2.625 -2C0.167 -2 -2 -0.075 -2 2.5H2C2 2.317 2.189 2 2.625 2V-2ZM-2 2.5V17.5H2V2.5H-2ZM-2 17.5C-2 20.075 0.167 22 2.625 22V18C2.189 18 2 17.683 2 17.5H-2ZM2.625 22H11.375V18H2.625V22ZM11.375 22C13.833 22 16 20.075 16 17.5H12C12 17.683 11.811 18 11.375 18V22ZM16 17.5V2.5H12V17.5H16ZM16 2.5C16 -0.075 13.833 -2 11.375 -2V2C11.811 2 12 2.317 12 2.5H16ZM12.25 16.212H1.75V20.212H12.25V16.212ZM3.75 18.212V2.5H-0.25V18.212H3.75ZM3.75 2.5C3.75 3.237 3.153 3.66699 2.625 3.66699V-0.333008C1.133 -0.333008 -0.25 0.843 -0.25 2.5H3.75ZM2.625 3.66699H11.375V-0.333008H2.625V3.66699ZM11.375 3.66699C10.847 3.66699 10.25 3.237 10.25 2.5H14.25C14.25 0.843 12.867 -0.333008 11.375 -0.333008V3.66699ZM10.25 2.5V18.212H14.25V2.5H10.25Z" fill="black"/>
        </g>
        <path d="M8 15C8 14.4477 7.55228 14 7 14C6.44772 14 6 14.4477 6 15C6 15.5523 6.44772 16 7 16C7.55228 16 8 15.5523 8 15Z" fill="black"/>
    </g>
</svg>
